<svg width="22" height="16" viewBox="0 0 22 16" fill="none" xmlns="http://www.w3.org/2000/svg">
<path d="M17.7821 15.0423H4.10504C3.94132 15.0438 3.78139 14.9931 3.64841 14.8976C3.51544 14.8021 3.41633 14.6667 3.36545 14.5111L0.0425358 4.37565C-0.00837388 4.22991 -0.0137162 4.07212 0.0272189 3.92326C0.068154 3.77441 0.153427 3.64154 0.271702 3.54232C0.388519 3.43983 0.533586 3.37504 0.687875 3.35645C0.842164 3.33786 0.998469 3.36634 1.13629 3.43815L7.19878 6.45898L10.3238 0.396485C10.3958 0.275623 10.498 0.175543 10.6204 0.106041C10.7427 0.0365396 10.881 0 11.0217 0C11.1624 0 11.3007 0.0365396 11.423 0.106041C11.5454 0.175543 11.6476 0.275623 11.7196 0.396485L14.8446 6.4694L20.9175 3.44857C21.0538 3.37763 21.2083 3.34962 21.3608 3.36821C21.5132 3.3868 21.6565 3.45114 21.7717 3.55273C21.8714 3.66202 21.9381 3.79737 21.9639 3.94305C21.9897 4.08873 21.9736 4.23875 21.9175 4.37565L18.5217 14.5007C18.4726 14.6582 18.3743 14.7959 18.2412 14.8934C18.108 14.9909 17.9471 15.0431 17.7821 15.0423V15.0423ZM4.73004 13.4798H17.23L19.8446 5.67773L14.7717 8.19857C14.6809 8.24504 14.5817 8.27302 14.48 8.28088C14.3782 8.28874 14.2759 8.27632 14.179 8.24434C14.0821 8.21236 13.9926 8.16147 13.9155 8.0946C13.8384 8.02774 13.7754 7.94623 13.73 7.85482L10.98 2.45898L8.24045 7.85482C8.19512 7.94623 8.13208 8.02774 8.055 8.0946C7.97793 8.16147 7.88834 8.21236 7.79144 8.24434C7.69454 8.27632 7.59226 8.28874 7.49052 8.28088C7.38879 8.27302 7.28962 8.24504 7.19878 8.19857L2.10504 5.64648L4.73004 13.4798Z" fill="white"/>
<path d="M10.9801 10.334C10.7737 10.3313 10.5765 10.2481 10.4306 10.1022C10.2847 9.95625 10.2015 9.7591 10.1988 9.55273C10.1974 9.45063 10.2163 9.34928 10.2545 9.25455C10.2926 9.15982 10.3491 9.07361 10.4209 9.00093C10.4926 8.92824 10.578 8.87053 10.6722 8.83114C10.7664 8.79175 10.8675 8.77148 10.9696 8.77148V8.77148C11.1768 8.77148 11.3756 8.85379 11.5221 9.00031C11.6686 9.14682 11.7509 9.34553 11.7509 9.55273C11.7509 9.75993 11.6686 9.95865 11.5221 10.1052C11.3756 10.2517 11.1768 10.334 10.9696 10.334H10.9801Z" fill="white"/>
</svg>
