<svg width="25" height="25" viewBox="0 0 25 25" fill="none" xmlns="http://www.w3.org/2000/svg">
<path d="M12.5 25C10.0277 25 7.61099 24.2669 5.55538 22.8934C3.49976 21.5199 1.89761 19.5676 0.951511 17.2835C0.005416 14.9995 -0.242126 12.4861 0.24019 10.0614C0.722505 7.63661 1.91301 5.40933 3.66117 3.66117C5.40933 1.91301 7.63661 0.722505 10.0614 0.24019C12.4861 -0.242126 14.9995 0.005416 17.2835 0.951511C19.5676 1.89761 21.5199 3.49976 22.8934 5.55538C24.2669 7.61099 25 10.0277 25 12.5C24.9966 15.8142 23.6786 18.9916 21.3351 21.3351C18.9916 23.6786 15.8142 24.9966 12.5 25ZM12.5 1.92308C10.4081 1.92308 8.36315 2.54341 6.62378 3.70561C4.88441 4.86782 3.52874 6.51971 2.7282 8.45239C1.92766 10.3851 1.7182 12.5117 2.12631 14.5635C2.53443 16.6152 3.54178 18.4998 5.02099 19.979C6.5002 21.4582 8.38483 22.4656 10.4365 22.8737C12.4883 23.2818 14.6149 23.0723 16.5476 22.2718C18.4803 21.4713 20.1322 20.1156 21.2944 18.3762C22.4566 16.6369 23.0769 14.5919 23.0769 12.5C23.0735 9.69587 21.9581 7.00756 19.9753 5.02474C17.9924 3.04192 15.3041 1.92647 12.5 1.92308Z" fill="white"/>
<path d="M12.5 19.5C11.1155 19.5 9.76215 19.0895 8.61101 18.3203C7.45987 17.5511 6.56266 16.4579 6.03285 15.1788C5.50303 13.8997 5.36441 12.4922 5.63451 11.1344C5.9046 9.7765 6.57129 8.52922 7.55026 7.55026C8.52922 6.57129 9.7765 5.9046 11.1344 5.63451C12.4922 5.36441 13.8997 5.50303 15.1788 6.03285C16.4579 6.56266 17.5511 7.45987 18.3203 8.61101C19.0895 9.76215 19.5 11.1155 19.5 12.5C19.4966 14.3555 18.758 16.134 17.446 17.446C16.134 18.758 14.3555 19.4966 12.5 19.5ZM12.5 7.3718C11.4857 7.3718 10.4943 7.67256 9.65092 8.23606C8.8076 8.79955 8.1503 9.60047 7.76216 10.5375C7.37402 11.4746 7.27246 12.5057 7.47033 13.5005C7.66821 14.4952 8.15662 15.409 8.87381 16.1262C9.591 16.8434 10.5048 17.3318 11.4995 17.5297C12.4943 17.7275 13.5254 17.626 14.4625 17.2378C15.3995 16.8497 16.2005 16.1924 16.7639 15.3491C17.3274 14.5057 17.6282 13.5143 17.6282 12.5C17.6282 11.1399 17.0879 9.83554 16.1262 8.87381C15.1645 7.91209 13.8601 7.3718 12.5 7.3718Z" fill="white"/>
<path d="M24.0385 13.4615H0.961538C0.706522 13.4615 0.461951 13.3602 0.281628 13.1799C0.101305 12.9996 0 12.755 0 12.5C0 12.245 0.101305 12.0004 0.281628 11.8201C0.461951 11.6398 0.706522 11.5385 0.961538 11.5385H24.0385C24.2935 11.5385 24.538 11.6398 24.7184 11.8201C24.8987 12.0004 25 12.245 25 12.5C25 12.755 24.8987 12.9996 24.7184 13.1799C24.538 13.3602 24.2935 13.4615 24.0385 13.4615Z" fill="white"/>
<path d="M12.5 25C12.246 24.9967 12.0034 24.8943 11.8238 24.7147C11.6441 24.5351 11.5418 24.2924 11.5385 24.0385V0.961538C11.5385 0.706522 11.6398 0.461951 11.8201 0.281628C12.0004 0.101305 12.245 0 12.5 0C12.755 0 12.9996 0.101305 13.1799 0.281628C13.3602 0.461951 13.4615 0.706522 13.4615 0.961538V24.0385C13.4582 24.2924 13.3558 24.5351 13.1762 24.7147C12.9966 24.8943 12.754 24.9967 12.5 25Z" fill="white"/>
</svg>
