<svg width="98" height="88" viewBox="0 0 98 88" fill="none" xmlns="http://www.w3.org/2000/svg">
<g clip-path="url(#clip0_94_107)">
<path d="M63.3211 38.2696L44.2075 24.8862C36.2904 19.3426 25.3784 21.2667 19.8348 29.1838C14.2912 37.1009 16.2153 48.0129 24.1324 53.5565L43.2459 66.94C51.163 72.4836 62.075 70.5595 67.6187 62.6424C73.1623 54.7253 71.2382 43.8132 63.3211 38.2696Z" fill="white" stroke="#E58E27" stroke-width="4" stroke-linejoin="round"/>
<path d="M37.5158 34.443L30.8241 43.9997" stroke="#804848" stroke-width="4" stroke-linecap="round" stroke-linejoin="round"/>
<path d="M29.3916 35.8755L38.9484 42.5672" stroke="#804848" stroke-width="4" stroke-linecap="round" stroke-linejoin="round"/>
<path d="M55.4373 29.1887L60.695 21.6798L70.2518 28.3716L75.0316 21.5453" stroke="#E58E27" stroke-width="4" stroke-linecap="round" stroke-linejoin="round"/>
<path d="M49.9376 57.3832C52.5767 59.2311 56.214 58.5897 58.0619 55.9507C59.9098 53.3116 59.2684 49.6743 56.6294 47.8264C53.9903 45.9785 50.353 46.6199 48.5051 49.2589C46.6573 51.898 47.2986 55.5353 49.9376 57.3832Z" fill="white" stroke="#804848" stroke-width="4" stroke-linejoin="round"/>
</g>
<defs>
<clipPath id="clip0_94_107">
<rect width="70" height="70" fill="white" transform="translate(40.1504 -10) rotate(35)"/>
</clipPath>
</defs>
</svg>
