<svg width="383" height="88" viewBox="0 0 383 88" fill="none" xmlns="http://www.w3.org/2000/svg">
<path d="M77.1094 57V24.2727H85.9943V49.8409H99.2259V57H77.1094ZM162.423 57V24.2727H170.333V37.4084H183.229V24.2727H191.123V57H183.229V43.8484H170.333V57H162.423ZM282.865 34.9634C282.684 34.2923 282.418 33.701 282.066 33.1896C281.715 32.6676 281.283 32.2255 280.772 31.8633C280.261 31.5011 279.675 31.2294 279.014 31.0483C278.354 30.8565 277.629 30.7607 276.841 30.7607C275.253 30.7607 273.879 31.1442 272.718 31.9112C271.567 32.6783 270.678 33.7969 270.049 35.267C269.421 36.7266 269.106 38.5004 269.106 40.5884C269.106 42.6871 269.41 44.4769 270.017 45.9577C270.625 47.4386 271.503 48.5678 272.654 49.3455C273.805 50.1232 275.2 50.5121 276.841 50.5121C278.29 50.5121 279.515 50.2777 280.516 49.8089C281.528 49.3295 282.295 48.6531 282.817 47.7795C283.339 46.9059 283.6 45.8778 283.6 44.6953L285.071 44.8711H277.112V39.1023H291.223V43.4329C291.223 46.3626 290.6 48.8714 289.353 50.9595C288.117 53.0476 286.413 54.6509 284.24 55.7695C282.077 56.8881 279.589 57.4474 276.777 57.4474C273.655 57.4474 270.912 56.771 268.547 55.418C266.182 54.065 264.339 52.1367 263.018 49.6332C261.697 47.119 261.036 44.136 261.036 40.6843C261.036 37.9996 261.436 35.6186 262.235 33.5412C263.034 31.4531 264.147 29.6847 265.575 28.2358C267.013 26.7869 268.675 25.6896 270.561 24.9439C272.457 24.1982 274.497 23.8253 276.681 23.8253C278.577 23.8253 280.34 24.0969 281.97 24.6403C283.611 25.1836 285.06 25.9506 286.317 26.9414C287.585 27.9322 288.613 29.1094 289.401 30.473C290.19 31.8366 290.68 33.3335 290.871 34.9634H282.865Z" fill="#E58E27"/>
<path d="M107.079 57H101.411L108.773 35.1818H115.793L123.155 57H117.487L112.363 40.679H112.192L107.079 57ZM106.322 48.4134H118.169V52.419H106.322V48.4134ZM122.065 39.4645V35.1818H140.506V39.4645H133.891V57H128.692V39.4645H122.065ZM143.082 57V35.1818H158.295V39.4645H148.355V43.9389H157.517V48.2322H148.355V52.7173H158.295V57H143.082ZM215.853 46.0909C215.853 48.4915 215.391 50.5263 214.468 52.1953C213.544 53.8643 212.294 55.1321 210.718 55.9986C209.148 56.8651 207.387 57.2983 205.434 57.2983C203.473 57.2983 201.709 56.8615 200.139 55.9879C198.569 55.1143 197.323 53.8466 196.4 52.1847C195.483 50.5156 195.025 48.4844 195.025 46.0909C195.025 43.6903 195.483 41.6555 196.4 39.9865C197.323 38.3175 198.569 37.0497 200.139 36.1832C201.709 35.3168 203.473 34.8835 205.434 34.8835C207.387 34.8835 209.148 35.3168 210.718 36.1832C212.294 37.0497 213.544 38.3175 214.468 39.9865C215.391 41.6555 215.853 43.6903 215.853 46.0909ZM210.462 46.0909C210.462 44.6705 210.26 43.4702 209.855 42.4901C209.457 41.5099 208.882 40.7678 208.129 40.2635C207.383 39.7592 206.485 39.5071 205.434 39.5071C204.39 39.5071 203.491 39.7592 202.738 40.2635C201.986 40.7678 201.407 41.5099 201.002 42.4901C200.604 43.4702 200.405 44.6705 200.405 46.0909C200.405 47.5114 200.604 48.7116 201.002 49.6918C201.407 50.6719 201.986 51.4141 202.738 51.9183C203.491 52.4226 204.39 52.6747 205.434 52.6747C206.485 52.6747 207.383 52.4226 208.129 51.9183C208.882 51.4141 209.457 50.6719 209.855 49.6918C210.26 48.7116 210.462 47.5114 210.462 46.0909ZM232.131 35.1818H237.394V49.255C237.394 50.8814 237.007 52.2983 236.233 53.5057C235.459 54.706 234.379 55.6364 232.994 56.2969C231.609 56.9503 230 57.277 228.168 57.277C226.314 57.277 224.695 56.9503 223.31 56.2969C221.925 55.6364 220.849 54.706 220.082 53.5057C219.315 52.2983 218.932 50.8814 218.932 49.255V35.1818H224.205V48.7969C224.205 49.5497 224.368 50.2209 224.695 50.8104C225.029 51.3999 225.494 51.8615 226.091 52.1953C226.687 52.5291 227.38 52.696 228.168 52.696C228.956 52.696 229.645 52.5291 230.235 52.1953C230.831 51.8615 231.297 51.3999 231.63 50.8104C231.964 50.2209 232.131 49.5497 232.131 48.7969V35.1818ZM240.699 57V35.1818H249.712C251.345 35.1818 252.755 35.4766 253.941 36.0661C255.135 36.6484 256.054 37.4865 256.701 38.5803C257.347 39.6669 257.67 40.956 257.67 42.4474C257.67 43.9602 257.34 45.2457 256.679 46.304C256.019 47.3551 255.081 48.1577 253.867 48.7116C252.652 49.2585 251.214 49.532 249.552 49.532H243.853V45.3771H248.572C249.367 45.3771 250.032 45.2741 250.564 45.0682C251.104 44.8551 251.512 44.5355 251.789 44.1094C252.066 43.6761 252.205 43.1222 252.205 42.4474C252.205 41.7727 252.066 41.2152 251.789 40.7749C251.512 40.3274 251.104 39.9936 250.564 39.7734C250.024 39.5462 249.36 39.4325 248.572 39.4325H245.973V57H240.699ZM252.983 47.0284L258.416 57H252.663L247.336 47.0284H252.983ZM299.779 57H294.111L301.473 35.1818H308.493L315.855 57H310.187L305.063 40.679H304.893L299.779 57ZM299.023 48.4134H310.869V52.419H299.023V48.4134ZM318.204 35.1818H324.735L330.274 48.6903H330.53L336.07 35.1818H342.6V57H337.465V43.598H337.284L332.043 56.8615H328.762L323.52 43.5234H323.339V57H318.204V35.1818ZM345.89 57V35.1818H361.103V39.4645H351.163V43.9389H360.325V48.2322H351.163V52.7173H361.103V57H345.89ZM376.199 41.723C376.127 40.9418 375.811 40.3345 375.25 39.9013C374.696 39.4609 373.904 39.2408 372.875 39.2408C372.193 39.2408 371.625 39.3295 371.17 39.5071C370.716 39.6847 370.375 39.9297 370.147 40.2422C369.92 40.5476 369.803 40.8991 369.796 41.2969C369.782 41.6236 369.846 41.9112 369.988 42.1598C370.137 42.4084 370.35 42.6286 370.627 42.8203C370.911 43.005 371.252 43.1683 371.65 43.3104C372.047 43.4524 372.495 43.5767 372.992 43.6832L374.867 44.1094C375.946 44.3438 376.898 44.6562 377.722 45.0469C378.553 45.4375 379.249 45.9027 379.81 46.4425C380.378 46.9822 380.808 47.6037 381.099 48.3068C381.39 49.0099 381.539 49.7983 381.547 50.6719C381.539 52.0497 381.191 53.2322 380.502 54.2195C379.814 55.2067 378.823 55.9631 377.53 56.4886C376.245 57.0142 374.693 57.277 372.875 57.277C371.049 57.277 369.458 57.0036 368.102 56.4567C366.745 55.9098 365.691 55.0788 364.938 53.9638C364.185 52.8487 363.798 51.4389 363.777 49.7344H368.826C368.869 50.4375 369.057 51.0234 369.391 51.4922C369.725 51.9609 370.183 52.3161 370.765 52.5575C371.355 52.799 372.037 52.9197 372.811 52.9197C373.521 52.9197 374.125 52.8239 374.622 52.6321C375.126 52.4403 375.513 52.174 375.783 51.8331C376.053 51.4922 376.191 51.1016 376.199 50.6612C376.191 50.2493 376.064 49.8977 375.815 49.6065C375.566 49.3082 375.183 49.0526 374.664 48.8395C374.153 48.6193 373.5 48.4169 372.704 48.2322L370.424 47.6996C368.535 47.2663 367.047 46.5668 365.961 45.6009C364.874 44.6278 364.334 43.3139 364.341 41.6591C364.334 40.3097 364.696 39.1271 365.428 38.1115C366.159 37.0959 367.172 36.304 368.464 35.7358C369.757 35.1676 371.23 34.8835 372.885 34.8835C374.576 34.8835 376.042 35.1712 377.285 35.7464C378.535 36.3146 379.505 37.1136 380.194 38.1435C380.882 39.1733 381.234 40.3665 381.248 41.723H376.199Z" fill="white"/>
<g clip-path="url(#clip0_94_193)">
<path d="M63.321 38.2696L44.2075 24.8862C36.2904 19.3426 25.3783 21.2667 19.8347 29.1838C14.2911 37.1009 16.2152 48.0129 24.1323 53.5565L43.2458 66.94C51.1629 72.4836 62.075 70.5595 67.6186 62.6424C73.1622 54.7253 71.2381 43.8132 63.321 38.2696Z" fill="white" stroke="#E58E27" stroke-width="4" stroke-linejoin="round"/>
<path d="M37.5157 34.443L30.824 43.9997" stroke="#804848" stroke-width="4" stroke-linecap="round" stroke-linejoin="round"/>
<path d="M29.3916 35.8755L38.9484 42.5672" stroke="#804848" stroke-width="4" stroke-linecap="round" stroke-linejoin="round"/>
<path d="M55.4373 29.1887L60.695 21.6798L70.2518 28.3716L75.0316 21.5453" stroke="#E58E27" stroke-width="4" stroke-linecap="round" stroke-linejoin="round"/>
<path d="M49.9376 57.3832C52.5766 59.2311 56.214 58.5897 58.0619 55.9507C59.9097 53.3116 59.2684 49.6743 56.6293 47.8264C53.9903 45.9785 50.353 46.6199 48.5051 49.2589C46.6572 51.898 47.2986 55.5353 49.9376 57.3832Z" fill="white" stroke="#804848" stroke-width="4" stroke-linejoin="round"/>
</g>
<defs>
<clipPath id="clip0_94_193">
<rect width="70" height="70" fill="white" transform="translate(40.1504 -10) rotate(35)"/>
</clipPath>
</defs>
</svg>
