<svg width="230" height="330" viewBox="0 0 230 330" fill="none" xmlns="http://www.w3.org/2000/svg">
<path d="M215 0H15C6.716 0 0 6.716 0 15V315C0 320.766 3.305 326.022 8.502 328.52C13.699 331.018 19.867 330.316 24.37 326.713L115 254.21L205.63 326.713C208.342 328.883 211.657 330 215.002 330C217.21 330 219.432 329.513 221.498 328.52C226.695 326.023 230 320.767 230 315V15C230 6.716 223.284 0 215 0ZM200 283.79L124.37 223.287C121.631 221.096 118.315 220 115 220C111.685 220 108.369 221.096 105.63 223.287L30 283.79V30H200V283.79Z" fill="white"/>
</svg>
