<svg width="20" height="20" viewBox="0 0 20 20" fill="none" xmlns="http://www.w3.org/2000/svg">
<path d="M9.60427 16.3333C9.39802 16.3288 9.20098 16.2471 9.05219 16.1042L3.11469 10.1563C2.98439 10.0141 2.91211 9.82826 2.91211 9.63542C2.91211 9.44258 2.98439 9.25674 3.11469 9.11458L11.8543 0.229167C12.0006 0.082612 12.1992 0.000182349 12.4064 3.09102e-09H18.3959C18.6013 -1.82562e-05 18.7985 0.0808603 18.9447 0.225128C19.0909 0.369395 19.1744 0.565443 19.1772 0.770833L19.2397 6.6875C19.24 6.89779 19.1577 7.09979 19.0105 7.25L10.1459 16.1146C10.0005 16.2548 9.80632 16.3332 9.60427 16.3333V16.3333ZM4.76052 9.60417L9.60427 14.4375L17.6876 6.36458L17.6251 1.55208L12.7293 1.53125L4.76052 9.60417Z" fill="white"/>
<path d="M12.5105 19.2396C12.4078 19.2401 12.3061 19.22 12.2113 19.1807C12.1165 19.1413 12.0305 19.0835 11.9584 19.0104L0.229241 7.25C0.134042 7.10317 0.0908955 6.92863 0.106716 6.75435C0.122536 6.58008 0.196408 6.41616 0.31649 6.28887C0.436573 6.16159 0.595913 6.0783 0.768971 6.05236C0.94203 6.02643 1.11879 6.05934 1.27091 6.14583L13.0626 17.9375C13.2089 18.084 13.2911 18.2826 13.2911 18.4896C13.2911 18.6966 13.2089 18.8952 13.0626 19.0417C12.9882 19.1096 12.9012 19.162 12.8064 19.196C12.7116 19.23 12.611 19.2448 12.5105 19.2396V19.2396Z" fill="white"/>
<path d="M4.39592 19.1771C4.28696 19.1883 4.17687 19.1764 4.07279 19.1423C3.96871 19.1083 3.87295 19.0527 3.79175 18.9792L0.229249 15.3854C0.155118 15.3098 0.0967006 15.2202 0.0573676 15.1219C0.0180346 15.0235 -0.00143498 14.9184 8.2327e-05 14.8125C8.2327e-05 14.3854 8.19564e-05 14.375 4.28133 10.2083C4.43052 10.0633 4.63121 9.98345 4.83926 9.98638C5.0473 9.98931 5.24567 10.0748 5.39071 10.2239C5.53575 10.3731 5.61558 10.5738 5.61265 10.7819C5.60972 10.9899 5.52427 11.1883 5.37508 11.3333C4.04175 12.6354 2.58342 14.0729 1.86467 14.8125L4.39592 17.2917L7.84383 13.7708C7.91565 13.6971 8.0015 13.6385 8.09632 13.5985C8.19114 13.5585 8.29301 13.5379 8.39592 13.5379C8.49883 13.5379 8.60069 13.5585 8.69551 13.5985C8.79033 13.6385 8.87618 13.6971 8.948 13.7708C9.0943 13.9173 9.17648 14.1159 9.17648 14.3229C9.17648 14.5299 9.0943 14.7285 8.948 14.875L4.89592 18.9792C4.75611 19.0993 4.58004 19.169 4.39592 19.1771Z" fill="white"/>
<path d="M9.60429 10.3854C9.50165 10.3859 9.39994 10.3659 9.30513 10.3265C9.21033 10.2872 9.12434 10.2293 9.05221 10.1562C8.90591 10.0098 8.82373 9.81119 8.82373 9.60415C8.82373 9.39712 8.90591 9.19856 9.05221 9.05207L13.2189 4.8854C13.2904 4.80865 13.3766 4.74708 13.4725 4.70438C13.5683 4.66168 13.6718 4.63872 13.7767 4.63687C13.8816 4.63502 13.9858 4.65432 14.083 4.69361C14.1803 4.7329 14.2687 4.79139 14.3429 4.86557C14.4171 4.93976 14.4755 5.02813 14.5148 5.12541C14.5541 5.22269 14.5734 5.32688 14.5716 5.43178C14.5697 5.53668 14.5468 5.64013 14.5041 5.73596C14.4614 5.8318 14.3998 5.91805 14.323 5.98957L10.1564 10.1562C10.0842 10.2293 9.99826 10.2872 9.90345 10.3265C9.80865 10.3659 9.70694 10.3859 9.60429 10.3854V10.3854Z" fill="white"/>
</svg>
