<svg width="19" height="21" viewBox="0 0 19 21" fill="none" xmlns="http://www.w3.org/2000/svg">
<path d="M17.5104 20.7292H0.78125C0.57405 20.7292 0.375336 20.6468 0.228823 20.5003C0.0823099 20.3538 0 20.1551 0 19.9479C0 19.7407 0.0823099 19.542 0.228823 19.3955C0.375336 19.249 0.57405 19.1667 0.78125 19.1667H17.5104C17.7176 19.1667 17.9163 19.249 18.0628 19.3955C18.2094 19.542 18.2917 19.7407 18.2917 19.9479C18.2917 20.1551 18.2094 20.3538 18.0628 20.5003C17.9163 20.6468 17.7176 20.7292 17.5104 20.7292V20.7292Z" fill="white"/>
<path d="M15.5208 20.7292C15.3136 20.7292 15.1149 20.6469 14.9684 20.5003C14.8219 20.3538 14.7395 20.1551 14.7395 19.9479V2.30208C14.7395 2.10593 14.6616 1.91782 14.5229 1.77912C14.3842 1.64042 14.1961 1.5625 14 1.5625H4.29163C4.09271 1.5625 3.90195 1.64152 3.7613 1.78217C3.62064 1.92282 3.54163 2.11359 3.54163 2.3125V19.9479C3.54163 20.1551 3.45932 20.3538 3.3128 20.5003C3.16629 20.6469 2.96758 20.7292 2.76038 20.7292C2.55318 20.7292 2.35446 20.6469 2.20795 20.5003C2.06144 20.3538 1.97913 20.1551 1.97913 19.9479V2.3125C1.97913 1.69919 2.22276 1.11099 2.65644 0.677315C3.09012 0.243638 3.67831 0 4.29163 0H14C14.6105 0 15.1961 0.24254 15.6278 0.674264C16.0595 1.10599 16.302 1.69153 16.302 2.30208V19.9479C16.3034 20.0509 16.2842 20.1531 16.2454 20.2485C16.2067 20.344 16.1492 20.4306 16.0763 20.5035C16.0035 20.5763 15.9168 20.6338 15.8214 20.6726C15.726 20.7113 15.6238 20.7306 15.5208 20.7292V20.7292Z" fill="white"/>
<path d="M7.2292 20.7292C7.12621 20.7306 7.02399 20.7113 6.92857 20.6726C6.83316 20.6338 6.74647 20.5763 6.67365 20.5035C6.60082 20.4306 6.54333 20.344 6.50456 20.2485C6.4658 20.1531 6.44655 20.0509 6.44795 19.9479V15.7812C6.44795 15.574 6.53026 15.3753 6.67677 15.2288C6.82328 15.0823 7.022 15 7.2292 15C7.4364 15 7.63511 15.0823 7.78162 15.2288C7.92813 15.3753 8.01045 15.574 8.01045 15.7812V19.9479C8.01045 20.1551 7.92813 20.3538 7.78162 20.5003C7.63511 20.6469 7.4364 20.7292 7.2292 20.7292V20.7292Z" fill="white"/>
<path d="M15.5208 12.5H2.76038C2.55318 12.5 2.35446 12.4177 2.20795 12.2712C2.06144 12.1247 1.97913 11.926 1.97913 11.7187C1.97913 11.5115 2.06144 11.3128 2.20795 11.1663C2.35446 11.0198 2.55318 10.9375 2.76038 10.9375H15.5208C15.728 10.9375 15.9267 11.0198 16.0732 11.1663C16.2197 11.3128 16.302 11.5115 16.302 11.7187C16.302 11.926 16.2197 12.1247 16.0732 12.2712C15.9267 12.4177 15.728 12.5 15.5208 12.5V12.5Z" fill="white"/>
<path d="M8.79163 6.84375C8.58973 6.84391 8.39561 6.76591 8.24996 6.62609C8.10431 6.48626 8.01845 6.29549 8.01038 6.09375V0.78125C8.01038 0.57405 8.09269 0.375336 8.2392 0.228823C8.38571 0.0823099 8.58443 0 8.79163 0C8.99883 0 9.19754 0.0823099 9.34405 0.228823C9.49057 0.375336 9.57288 0.57405 9.57288 0.78125V6.09375C9.5623 6.29462 9.47566 6.48394 9.33056 6.62324C9.18545 6.76254 8.99276 6.84138 8.79163 6.84375V6.84375Z" fill="white"/>
<path d="M10.3541 8.40625C10.1469 8.40625 9.94821 8.32394 9.8017 8.17743C9.65519 8.03092 9.57288 7.8322 9.57288 7.625C9.57288 7.4178 9.49057 7.21909 9.34405 7.07257C9.19754 6.92606 8.99883 6.84375 8.79163 6.84375C8.58443 6.84375 8.38571 6.92606 8.2392 7.07257C8.09269 7.21909 8.01038 7.4178 8.01038 7.625C8.01038 7.8322 7.92807 8.03092 7.78155 8.17743C7.63504 8.32394 7.43633 8.40625 7.22913 8.40625C7.02193 8.40625 6.82321 8.32394 6.6767 8.17743C6.53019 8.03092 6.44788 7.8322 6.44788 7.625C6.44788 7.0034 6.69481 6.40726 7.13434 5.96772C7.57388 5.52818 8.17002 5.28125 8.79163 5.28125C9.41323 5.28125 10.0094 5.52818 10.4489 5.96772C10.8884 6.40726 11.1354 7.0034 11.1354 7.625C11.1368 7.72799 11.1175 7.8302 11.0788 7.92562C11.04 8.02104 10.9825 8.10772 10.9097 8.18055C10.8368 8.25338 10.7502 8.31087 10.6547 8.34964C10.5593 8.3884 10.4571 8.40765 10.3541 8.40625V8.40625Z" fill="white"/>
</svg>
