<svg width="21" height="21" viewBox="0 0 21 21" fill="none" xmlns="http://www.w3.org/2000/svg">
<path d="M10.5 21C8.4233 21 6.39323 20.3842 4.66652 19.2304C2.9398 18.0767 1.59399 16.4368 0.79927 14.5182C0.00454939 12.5996 -0.203385 10.4884 0.201759 8.45156C0.606904 6.41476 1.60693 4.54384 3.07538 3.07538C4.54383 1.60693 6.41476 0.606904 8.45156 0.201759C10.4884 -0.203386 12.5996 0.00454939 14.5182 0.79927C16.4368 1.59399 18.0767 2.9398 19.2304 4.66652C20.3842 6.39323 21 8.4233 21 10.5C20.9972 13.2839 19.8901 15.953 17.9216 17.9216C15.953 19.8901 13.2839 20.9972 10.5 21V21ZM10.5 1.5625C8.73233 1.5625 7.00436 2.08668 5.5346 3.06875C4.06483 4.05081 2.91929 5.44666 2.24283 7.07977C1.56637 8.71289 1.38938 10.5099 1.73424 12.2436C2.07909 13.9773 2.93031 15.5698 4.18024 16.8198C5.43017 18.0697 7.02268 18.9209 8.75638 19.2658C10.4901 19.6106 12.2871 19.4336 13.9202 18.7572C15.5534 18.0807 16.9492 16.9352 17.9313 15.4654C18.9133 13.9957 19.4375 12.2677 19.4375 10.5C19.4347 8.13048 18.4922 5.85879 16.8167 4.18328C15.1412 2.50777 12.8695 1.56526 10.5 1.5625V1.5625Z" fill="white"/>
<path d="M5.6875 16.0937C5.48125 16.0893 5.28421 16.0075 5.13541 15.8646C5.03255 15.7616 4.9605 15.632 4.92737 15.4903C4.89424 15.3485 4.90136 15.2004 4.94792 15.0625L7.03125 8.875C7.06579 8.77423 7.12056 8.68159 7.19222 8.60277C7.26387 8.52396 7.35089 8.46062 7.44792 8.41667L15.0104 4.97917C15.1562 4.90954 15.32 4.88683 15.4792 4.91414C15.6385 4.94146 15.7853 5.01748 15.8995 5.13172C16.0138 5.24596 16.0898 5.3928 16.1171 5.55203C16.1444 5.71126 16.1217 5.87505 16.0521 6.02083L12.5833 13.625C12.5394 13.722 12.476 13.809 12.3972 13.8807C12.3184 13.9524 12.2258 14.0071 12.125 14.0417L5.9375 16.125C5.85321 16.1247 5.76926 16.1142 5.6875 16.0937ZM8.41667 9.69792L6.95833 14.0729L11.3333 12.6146L13.7708 7.26042L8.41667 9.69792Z" fill="white"/>
<path d="M10.0104 11.7708C9.80325 11.7706 9.60467 11.6882 9.45829 11.5416C9.38736 11.4657 9.33088 11.3775 9.29163 11.2812C9.2512 11.1893 9.22993 11.09 9.22913 10.9896C9.22931 10.7824 9.31174 10.5839 9.45829 10.4375C9.5691 10.3298 9.70831 10.256 9.8596 10.2246C10.0109 10.1932 10.168 10.2056 10.3125 10.2604C10.4059 10.3037 10.4906 10.3637 10.5625 10.4375C10.709 10.5839 10.7914 10.7824 10.7916 10.9896C10.7908 11.09 10.7696 11.1893 10.7291 11.2812C10.6899 11.3775 10.6334 11.4657 10.5625 11.5416C10.4902 11.6123 10.4054 11.6688 10.3125 11.7083C10.2172 11.7499 10.1143 11.7711 10.0104 11.7708V11.7708Z" fill="white"/>
</svg>
