<svg width="21" height="20" viewBox="0 0 21 20" fill="none" xmlns="http://www.w3.org/2000/svg">
<path d="M5.26343 19.5209C4.80912 19.5345 4.36282 19.3991 3.9926 19.1355C3.63519 18.8771 3.36901 18.5119 3.23235 18.0926C3.0957 17.6733 3.09564 17.2215 3.23218 16.8021L4.54468 12.75C4.57829 12.6438 4.57832 12.5298 4.54477 12.4235C4.51121 12.3173 4.44571 12.224 4.35718 12.1563L0.909262 9.65629C0.534627 9.40071 0.25362 9.02987 0.108909 8.60006C-0.0358026 8.17026 -0.0363142 7.70498 0.107452 7.27486C0.251218 6.84474 0.531408 6.47328 0.905481 6.21688C1.27955 5.96047 1.72707 5.83314 2.1801 5.8542H6.44051C6.55188 5.85488 6.66054 5.81983 6.75053 5.75422C6.84052 5.6886 6.9071 5.59586 6.94051 5.48962L8.25301 1.42712C8.39155 1.00968 8.65864 0.646803 9.01603 0.390454C9.37342 0.134105 9.80278 -0.00255976 10.2426 3.63126e-05V3.63126e-05C10.6824 -0.00255976 11.1118 0.134105 11.4692 0.390454C11.8265 0.646803 12.0936 1.00968 12.2322 1.42712L13.5447 5.48962C13.5781 5.59586 13.6447 5.6886 13.7347 5.75422C13.8247 5.81983 13.9333 5.85488 14.0447 5.8542H18.3051C18.7488 5.84949 19.1823 5.98655 19.5427 6.24541C19.903 6.50427 20.1713 6.87141 20.3085 7.29337C20.4457 7.71532 20.4445 8.17005 20.3053 8.59132C20.166 9.01258 19.8959 9.37839 19.5343 9.63545L16.0863 12.1459C15.9975 12.2108 15.9314 12.3022 15.8977 12.407C15.8641 12.5119 15.8644 12.6246 15.8988 12.7292L17.2113 16.7813C17.3571 17.1992 17.366 17.6526 17.2368 18.0759C17.1076 18.4991 16.8469 18.8703 16.4926 19.1355C16.1358 19.3962 15.7053 19.5367 15.2634 19.5367C14.8215 19.5367 14.3911 19.3962 14.0343 19.1355L10.5968 16.6355C10.506 16.5694 10.3966 16.5338 10.2843 16.5338C10.172 16.5338 10.0626 16.5694 9.97176 16.6355L6.49259 19.1355C6.13388 19.3906 5.70358 19.5255 5.26343 19.5209V19.5209ZM10.2426 14.9688C10.6851 14.9702 11.1156 15.1125 11.4718 15.375L14.9197 17.875C15.0105 17.9389 15.1191 17.9728 15.2301 17.9718C15.3412 17.9708 15.4491 17.935 15.5388 17.8695C15.6285 17.8039 15.6953 17.712 15.73 17.6065C15.7647 17.501 15.7655 17.3872 15.7322 17.2813L14.4093 13.2188C14.2703 12.798 14.2691 12.3439 14.4058 11.9224C14.5426 11.501 14.8102 11.1341 15.1697 10.875L18.5759 8.37504C18.6697 8.31186 18.7393 8.21875 18.7734 8.11091C18.8074 8.00307 18.8039 7.88687 18.7634 7.78129C18.7315 7.67415 18.6653 7.58045 18.575 7.51459C18.4846 7.44872 18.3752 7.41433 18.2634 7.4167H14.0447C13.6053 7.41638 13.1774 7.27718 12.8219 7.019C12.4664 6.76083 12.2017 6.39689 12.0655 5.9792L10.7426 1.92712C10.7123 1.81905 10.6465 1.72432 10.5558 1.65819C10.4651 1.59205 10.3548 1.55836 10.2426 1.56254V1.56254C10.1304 1.55836 10.0201 1.59205 9.92942 1.65819C9.83872 1.72432 9.77292 1.81905 9.74259 1.92712L8.41968 5.96879C8.28529 6.38841 8.02131 6.75463 7.6657 7.01479C7.31008 7.27495 6.88113 7.41567 6.44051 7.4167H2.1801C2.06833 7.41433 1.95887 7.44872 1.86855 7.51459C1.77822 7.58045 1.71201 7.67415 1.6801 7.78129C1.6396 7.88687 1.63609 8.00307 1.67014 8.11091C1.7042 8.21875 1.7738 8.31186 1.8676 8.37504L5.31551 10.875C5.67504 11.1341 5.94261 11.501 6.07936 11.9224C6.21611 12.3439 6.2149 12.798 6.07593 13.2188L4.75301 17.2605C4.71972 17.3664 4.72047 17.4801 4.75515 17.5856C4.78984 17.6911 4.85672 17.7831 4.94638 17.8486C5.03605 17.9142 5.144 17.9499 5.25505 17.9509C5.36611 17.9519 5.47468 17.9181 5.56551 17.8542L9.01343 15.3542C9.37214 15.0991 9.80244 14.9642 10.2426 14.9688V14.9688Z" fill="white"/>
</svg>
