<svg width="25" height="22" viewBox="0 0 25 22" fill="none" xmlns="http://www.w3.org/2000/svg">
<path d="M12.5174 15.6577C10.7435 15.6577 9.04233 14.9667 7.78803 13.7367C6.53372 12.5066 5.82906 10.8383 5.82906 9.09881V1.4923C5.81138 1.24589 5.81138 0.998564 5.82906 0.752151C5.84354 0.640746 5.88026 0.533231 5.93712 0.435743C5.99398 0.338255 6.06986 0.252704 6.16043 0.183974C6.25101 0.115245 6.3545 0.0646825 6.46499 0.0351745C6.57549 0.00566644 6.69084 -0.00220964 6.80444 0.0119963C6.91804 0.0262022 7.02768 0.0622119 7.12709 0.117969C7.2265 0.173726 7.31374 0.248139 7.38383 0.336959C7.45392 0.425779 7.50548 0.527266 7.53557 0.635627C7.56566 0.743987 7.57369 0.857099 7.5592 0.968503C7.54689 1.1429 7.54689 1.31791 7.5592 1.4923V9.09881C7.5592 10.3853 8.08036 11.6192 9.00802 12.5289C9.93569 13.4386 11.1939 13.9497 12.5058 13.9497C13.8177 13.9497 15.0759 13.4386 16.0035 12.5289C16.9312 11.6192 17.4524 10.3853 17.4524 9.09881V1.4923C17.4647 1.31791 17.4647 1.1429 17.4524 0.968503C17.4577 0.764785 17.5371 0.569642 17.6763 0.418318C17.8155 0.266994 18.0052 0.169463 18.2113 0.143341C18.4174 0.117219 18.6262 0.164226 18.8001 0.275874C18.9739 0.387522 19.1013 0.55645 19.1593 0.752151C19.177 0.998564 19.177 1.24589 19.1593 1.4923V9.09881C19.1593 10.8305 18.4611 12.4919 17.2168 13.7206C15.9725 14.9494 14.2832 15.6457 12.5174 15.6577V15.6577Z" fill="white"/>
<path d="M18.9619 8.72277C18.8023 8.72141 18.6459 8.67816 18.5091 8.59751L17.882 8.23313C17.6944 8.11566 17.5598 7.9322 17.5058 7.72043C17.4518 7.50866 17.4826 7.28466 17.5917 7.09443C17.7077 6.90631 17.894 6.77007 18.1109 6.71476C18.3278 6.65945 18.5582 6.68945 18.7529 6.79837L19.1593 7.03749C22.2596 6.80975 22.968 3.34811 23.2002 1.70838H1.83465C1.99721 3.35949 2.74036 6.80975 5.84069 6.96917L6.2471 6.73004C6.44179 6.62113 6.67217 6.59112 6.8891 6.64643C7.10603 6.70175 7.29233 6.83799 7.40827 7.02611C7.51744 7.21634 7.5482 7.44034 7.49421 7.65211C7.44022 7.86388 7.30559 8.04734 7.11797 8.16481L6.49094 8.52919C6.3541 8.60984 6.19773 8.65309 6.03809 8.65445C1.26568 8.65445 0 3.5303 0 0.820195C0.0120325 0.594667 0.113488 0.382685 0.282709 0.229505C0.45193 0.0763238 0.675507 -0.00591955 0.905713 0.000331999H24.1291C24.3592 0.00328119 24.5789 0.0942054 24.7416 0.253731C24.9043 0.413257 24.997 0.628772 25 0.854356C25 3.56446 23.7343 8.72277 18.9619 8.72277Z" fill="white"/>
<path d="M12.5174 22C12.2873 21.9971 12.0676 21.9061 11.9049 21.7466C11.7422 21.5871 11.6495 21.3716 11.6465 21.146V14.8034C11.6465 14.5769 11.7382 14.3597 11.9016 14.1995C12.0649 14.0394 12.2864 13.9494 12.5174 13.9494C12.7483 13.9494 12.9698 14.0394 13.1332 14.1995C13.2965 14.3597 13.3882 14.5769 13.3882 14.8034V21.146C13.3852 21.3716 13.2925 21.5871 13.1298 21.7466C12.9672 21.9061 12.7474 21.9971 12.5174 22V22Z" fill="white"/>
<path d="M18.985 22H7.37332C7.14235 22 6.92084 21.91 6.75752 21.7498C6.59419 21.5897 6.50244 21.3725 6.50244 21.146C6.50244 20.9195 6.59419 20.7022 6.75752 20.5421C6.92084 20.3819 7.14235 20.2919 7.37332 20.2919H18.985C19.216 20.2919 19.4375 20.3819 19.6008 20.5421C19.7641 20.7022 19.8559 20.9195 19.8559 21.146C19.8559 21.3725 19.7641 21.5897 19.6008 21.7498C19.4375 21.91 19.216 22 18.985 22Z" fill="white"/>
</svg>
