<svg width="21" height="21" viewBox="0 0 21 21" fill="none" xmlns="http://www.w3.org/2000/svg">
<path d="M10.1563 20.3125C8.14754 20.3125 6.18393 19.7168 4.51374 18.6009C2.84356 17.4849 1.54181 15.8987 0.773103 14.0429C0.0044005 12.1871 -0.196727 10.145 0.195154 8.17487C0.587035 6.20475 1.55432 4.39508 2.9747 2.9747C4.39508 1.55432 6.20475 0.587035 8.17487 0.195154C10.145 -0.196727 12.1871 0.0044005 14.0429 0.773103C15.8987 1.54181 17.4849 2.84356 18.6009 4.51374C19.7168 6.18393 20.3125 8.14754 20.3125 10.1563C20.3097 12.849 19.2388 15.4307 17.3348 17.3348C15.4307 19.2388 12.849 20.3097 10.1563 20.3125ZM10.1563 1.5625C8.45657 1.5625 6.79506 2.06652 5.38182 3.01081C3.96859 3.95511 2.86711 5.29727 2.21666 6.86757C1.56622 8.43787 1.39604 10.1658 1.72763 11.8328C2.05922 13.4998 2.8777 15.0311 4.07956 16.233C5.28141 17.4348 6.81267 18.2533 8.4797 18.5849C10.1467 18.9165 11.8746 18.7463 13.4449 18.0958C15.0152 17.4454 16.3574 16.3439 17.3017 14.9307C18.246 13.5175 18.75 11.8559 18.75 10.1563C18.7472 7.8779 17.841 5.69364 16.2299 4.0826C14.6189 2.47156 12.4346 1.56526 10.1563 1.5625V1.5625Z" fill="white"/>
<path d="M6.27087 15.0521C6.07311 15.0501 5.88324 14.9742 5.73865 14.8392C5.59407 14.7043 5.50523 14.5201 5.48962 14.3229V10.8125C5.48962 10.6053 5.57193 10.4066 5.71845 10.2601C5.86496 10.1136 6.06367 10.0312 6.27087 10.0312C6.47808 10.0312 6.67679 10.1136 6.8233 10.2601C6.96981 10.4066 7.05213 10.6053 7.05213 10.8125V14.3229C7.03889 14.521 6.95078 14.7065 6.80567 14.842C6.66057 14.9774 6.46936 15.0525 6.27087 15.0521Z" fill="white"/>
<path d="M10.1562 15.0521C9.94989 15.0494 9.75274 14.9662 9.60681 14.8203C9.46087 14.6743 9.3777 14.4772 9.375 14.2708V6.04166C9.375 5.83446 9.45731 5.63574 9.60382 5.48923C9.75034 5.34272 9.94905 5.26041 10.1562 5.26041C10.3635 5.26041 10.5622 5.34272 10.7087 5.48923C10.8552 5.63574 10.9375 5.83446 10.9375 6.04166V14.3229C10.9219 14.5201 10.8331 14.7043 10.6885 14.8392C10.5439 14.9741 10.354 15.0501 10.1562 15.0521V15.0521Z" fill="white"/>
<path d="M14.0417 15.0521C13.8468 15.0473 13.6608 14.9699 13.5201 14.835C13.3794 14.7001 13.2942 14.5174 13.2812 14.3229V8.91669C13.2812 8.70949 13.3636 8.51077 13.5101 8.36426C13.6566 8.21775 13.8553 8.13544 14.0625 8.13544C14.2697 8.13544 14.4684 8.21775 14.6149 8.36426C14.7614 8.51077 14.8437 8.70949 14.8437 8.91669V14.3229C14.8279 14.5237 14.7361 14.7109 14.5871 14.8463C14.4381 14.9818 14.243 15.0554 14.0417 15.0521V15.0521Z" fill="white"/>
</svg>
